<?xml version="1.0" standalone="no"?>
<!DOCTYPE svg PUBLIC "-//W3C//DTD SVG 20010904//EN"
 "http://www.w3.org/TR/2001/REC-SVG-20010904/DTD/svg10.dtd">
<svg version="1.0" xmlns="http://www.w3.org/2000/svg"
 width="800.000000pt" height="800.000000pt" viewBox="0 0 800.000000 800.000000"
 preserveAspectRatio="xMidYMid meet">
<metadata>
Created by potrace 1.14, written by Peter Selinger 2001-2017
</metadata>
<g transform="translate(0.000000,800.000000) scale(0.100000,-0.100000)"
fill="#000000" stroke="none">
<path d="M1150 7996 c0 -2 327 -316 727 -697 l727 -694 -52 -3 -52 -3 0 -399
0 -400 -22 -14 c-13 -7 -72 -44 -133 -82 -1155 -713 -1707 -2095 -1361 -3409
200 -756 686 -1412 1361 -1834 115 -72 377 -203 512 -255 788 -306 1691 -266
2458 109 783 383 1371 1084 1610 1919 82 289 116 541 116 860 -1 584 -156
1126 -465 1624 -255 410 -654 796 -1068 1032 l-78 44 -2 408 -3 408 695 669
c382 368 706 681 719 695 l24 26 -1036 0 -1036 0 -303 -292 c-167 -160 -341
-329 -388 -375 l-86 -83 -389 375 -390 375 -1042 0 c-574 0 -1043 -2 -1043 -4z
m2859 -1742 c786 -3 1047 -1 1058 7 9 8 17 9 24 2 13 -13 7 -309 -6 -306 -5 1
-63 21 -128 43 -326 112 -626 160 -996 160 -372 0 -664 -48 -1003 -164 l-128
-44 0 152 c0 84 3 156 7 160 5 4 35 4 68 1 33 -4 530 -9 1104 -11z m49 -1697
c244 -244 440 -446 436 -450 -4 -4 -168 -7 -364 -7 -375 0 -451 -6 -586 -49
-338 -107 -610 -386 -709 -726 -106 -365 -10 -758 252 -1036 266 -282 666
-399 1040 -304 117 30 290 113 384 184 192 146 332 358 401 608 20 73 22 105
26 473 2 217 7 398 10 402 4 4 217 -202 472 -457 l465 -465 -110 -110 c-60
-60 -114 -110 -120 -110 -6 0 -73 63 -150 140 -77 77 -142 140 -145 140 -3 0
-14 -42 -23 -92 -119 -628 -640 -1115 -1282 -1199 -114 -15 -383 -6 -485 16
-164 36 -376 121 -504 203 -176 113 -354 291 -468 468 -82 127 -167 340 -203
504 -22 102 -31 371 -16 485 66 501 368 926 824 1157 98 49 254 101 372 125
50 9 92 19 95 20 2 2 -60 68 -138 146 -78 78 -142 147 -142 152 0 10 210 225
220 225 3 0 204 -199 448 -443z"/>
</g>
</svg>
